<svg width="46" height="46" viewBox="0 0 46 46" fill="none" xmlns="http://www.w3.org/2000/svg">
<path d="M21.08 4C17.44 4 14.5 6.90426 14.5 10.5C14.5 14.0681 17.44 16.9723 21.052 17C20.156 16.9723 19.456 16.2532 19.456 15.3681C19.456 14.483 20.184 13.7362 21.108 13.7362C25.028 13.7362 33.736 13.7362 37.572 13.7362C40.288 13.7362 42.5 11.5511 42.5 8.86812C42.5 6.1851 40.288 4 37.572 4L21.08 4Z" fill="white"/>
<path opacity="0.9" d="M13.08 17C9.44 17 6.5 19.9043 6.5 23.5C6.5 27.0681 9.44 29.9723 13.052 30C12.156 29.9723 11.456 29.2532 11.456 28.3681C11.456 27.483 12.184 26.7362 13.108 26.7362C17.028 26.7362 25.736 26.7362 29.572 26.7362C32.288 26.7362 34.5 24.5511 34.5 21.8681C34.5 19.1851 32.288 17 29.572 17L13.08 17Z" fill="white"/>
<path opacity="0.8" d="M7.55 30C3.65 30 0.5 33.1277 0.5 37C0.5 40.8426 3.65 43.9702 7.51998 44C6.55999 43.9702 5.81 43.1958 5.81 42.2425C5.81 41.2894 6.59002 40.4851 7.58003 40.4851C11.78 40.4851 21.11 40.4851 25.22 40.4851C28.13 40.4851 30.5 38.1319 30.5 35.2426C30.5 32.3532 28.13 30 25.22 30L7.55 30Z" fill="white"/>
</svg>
